<?xml version="1.0" encoding="UTF-8"?><svg id="Layer_1" xmlns="http://www.w3.org/2000/svg" viewBox="0 0 924.79 188.48"><defs><style>.cls-1{fill:#fff;}</style></defs><path class="cls-1" d="M582.6,0h63.25c13.37,0,20.06,2.93,20.06,8.79v1.95c-1.03,5.54-5.14,8.3-12.34,8.3h-70.2c-20.19,0-33.56,2.44-40.11,7.32-9.77,5.54-14.66,12.7-14.66,21.48v94.24c0,12.21,10.54,21,31.63,26.37,3.86,.65,7.46,.98,10.8,.98h78.68c10.8,0,16.2,3.26,16.2,9.77s-4.37,9.28-13.11,9.28h-81.77c-28.42,0-50.79-9.44-67.11-28.32-3.6-6.43-5.4-12.45-5.4-18.07V46.88c0-13.26,7.97-24.66,23.91-34.18,12.6-8.46,32.65-12.7,60.17-12.7Z"/><path class="cls-1" d="M451.87,150.92c0,2.43-.99,4.64-2.58,6.23-1.59,1.6-3.79,2.58-6.23,2.58h-11.28c6.43,12.43,9.65,18.92,9.65,19.47,0,5.37-4.11,8.46-12.34,9.28h-132.68c-8.74,0-13.11-3.26-13.11-9.77v-.49c0-5.86,5.4-8.79,16.2-8.79h105.68l-5.07-9.7h-87.39c-4.86,0-8.81-3.94-8.81-8.81,0-2.43,.99-4.63,2.58-6.23,1.6-1.59,3.8-2.58,6.23-2.58h78.18l-53.61-102.56h-.77c0,.73-25.2,48.91-75.59,144.53-3.35,2.93-7.21,4.4-11.58,4.4h-3.85c-7.85,0-12.22-3.26-13.12-9.77,0-1.22,30.6-59.33,91.8-174.32C327.91,1.46,332.28,0,337.29,0c9.26,0,15.69,5.86,19.29,17.58,29.92,56.13,51.93,97.64,66.02,124.53h20.46c4.87,0,8.81,3.95,8.81,8.81Z"/><path class="cls-1" d="M915.98,142.11h-12.86V45.9c0-10.58-5.15-19.7-15.43-27.35C874.83,6.18,852.2,0,819.81,0h-74.83c-7.71,.08-11.57,.41-11.57,.98-6.17,0-9.26,4.55-9.26,13.67V176.27c0,8.14,5.14,12.21,15.43,12.21h91.02c10.93,0,20.96-1.47,30.09-4.4,18.48-6.38,30.92-14.5,37.33-24.35h17.96c2.43,0,4.63-.98,6.23-2.58,1.59-1.59,2.58-3.8,2.58-6.23,0-4.86-3.95-8.81-8.81-8.81Zm-85.38,27.32h-75.59V19.04h65.57c3.6,0,9.25,.17,16.97,.49,23.65,4.97,35.48,13.92,35.48,26.86v95.72h-87.39c-2.44,0-4.64,.99-6.23,2.58-1.59,1.6-2.58,3.8-2.58,6.23,0,4.87,3.94,8.81,8.81,8.81h76.69c-8.02,6.47-18.59,9.7-31.73,9.7Z"/><path class="cls-1" d="M188.32,142.11h-13.21v-21.02c0-8.79-3.86-16.92-11.57-24.41-8.49-7.49-16.72-12.37-24.69-14.65v-.98c14.91-9.44,22.37-20.34,22.37-32.71v-2.44c0-10.58-5.14-19.7-15.43-27.35C132.94,6.18,110.31,0,77.91,0H20.06C6.68,0,0,2.77,0,8.3V180.66c0,5.21,4.88,7.82,14.66,7.82H102.59c10.93,0,20.96-1.47,30.09-4.4,18.48-6.38,30.92-14.5,37.33-24.35h18.31c2.43,0,4.63-.98,6.23-2.58,1.59-1.59,2.58-3.8,2.58-6.23,0-4.86-3.95-8.81-8.81-8.81Zm-85.73,27.32H30.08V19.04h48.6c3.6,0,9.26,.17,16.97,.49,23.66,4.97,35.49,13.92,35.49,26.86v1.95c0,1.38-.26,3.17-.77,5.37-8.23,14.32-22.12,21.48-41.66,21.48h-23.91c-10.8,0-16.2,2.93-16.2,8.79v.49c0,6.51,4.37,9.77,13.11,9.77h30.86c3.59,0,9.25,.16,16.97,.49,23.65,4.96,35.48,13.91,35.48,26.85v20.53H57.98c-2.44,0-4.64,.99-6.23,2.58-1.59,1.6-2.58,3.8-2.58,6.23,0,4.87,3.94,8.81,8.81,8.81h76.34c-8.02,6.47-18.59,9.7-31.73,9.7Z"/></svg>