<?xml version="1.0" standalone="no"?>
<!DOCTYPE svg PUBLIC "-//W3C//DTD SVG 20010904//EN"
 "http://www.w3.org/TR/2001/REC-SVG-20010904/DTD/svg10.dtd">
<svg version="1.0" xmlns="http://www.w3.org/2000/svg"
 width="2525.000000pt" height="2525.000000pt" viewBox="0 0 2525.000000 2525.000000"
 preserveAspectRatio="xMidYMid meet">
<metadata>
Created by potrace 1.14, written by Peter Selinger 2001-2017
</metadata>
<g transform="translate(0.000000,2525.000000) scale(0.100000,-0.100000)"
fill="#000000" stroke="none">
<path d="M12188 25245 c-1 -1 -73 -6 -158 -9 -85 -3 -175 -8 -200 -10 -25 -3
-92 -7 -150 -11 -58 -3 -116 -8 -130 -10 -14 -2 -61 -7 -105 -9 -44 -3 -96 -8
-115 -10 -19 -2 -62 -7 -95 -10 -66 -7 -137 -16 -174 -22 -14 -2 -51 -6 -84
-9 -32 -4 -67 -8 -77 -10 -11 -2 -70 -11 -132 -20 -130 -19 -139 -20 -253 -39
-16 -3 -46 -8 -65 -11 -19 -3 -46 -8 -60 -10 -58 -12 -77 -15 -105 -20 -85
-15 -352 -70 -440 -90 -55 -13 -111 -26 -125 -29 -14 -2 -99 -23 -190 -46 -91
-23 -172 -43 -180 -45 -24 -6 -416 -120 -525 -153 -280 -86 -791 -273 -1098
-403 -949 -402 -1841 -914 -2652 -1523 -170 -128 -377 -289 -435 -340 -20 -17
-56 -47 -80 -66 -24 -19 -54 -44 -66 -55 -12 -11 -44 -38 -70 -60 -194 -162
-466 -415 -739 -690 -290 -291 -301 -303 -579 -615 -17 -19 -67 -78 -111 -130
-44 -52 -83 -97 -86 -100 -10 -9 -175 -215 -280 -350 -271 -348 -556 -761
-797 -1155 -69 -114 -212 -356 -212 -361 0 -2 -13 -25 -28 -51 -55 -93 -179
-327 -280 -529 -55 -109 -87 -177 -159 -334 -14 -30 -43 -93 -64 -138 -22 -46
-39 -86 -39 -89 0 -2 -11 -28 -24 -56 -32 -72 -146 -346 -146 -353 0 -3 -7
-20 -15 -37 -66 -143 -285 -791 -380 -1126 -134 -474 -292 -1186 -331 -1501
-3 -19 -11 -75 -19 -125 -8 -49 -17 -112 -20 -140 -9 -75 -16 -127 -20 -155
-8 -53 -16 -125 -20 -174 -3 -28 -7 -71 -9 -96 -3 -25 -8 -74 -11 -110 -3 -36
-8 -81 -10 -100 -4 -32 -9 -100 -21 -282 -14 -220 -19 -424 -19 -803 0 -472
12 -795 40 -1085 2 -25 7 -74 10 -110 3 -36 8 -81 10 -100 2 -19 7 -62 10 -95
3 -33 8 -73 10 -90 2 -16 9 -73 15 -125 6 -52 13 -106 15 -120 8 -51 37 -246
40 -270 2 -14 6 -41 10 -60 3 -19 8 -48 11 -65 33 -190 48 -275 65 -360 11
-55 22 -110 25 -122 45 -226 166 -705 249 -988 88 -298 293 -900 345 -1010 5
-11 39 -94 75 -185 220 -544 543 -1189 858 -1709 62 -101 119 -196 127 -210
35 -60 258 -393 357 -534 148 -213 546 -736 582 -767 3 -3 53 -61 111 -130 57
-69 119 -141 136 -160 17 -19 55 -62 84 -95 259 -292 711 -747 995 -1000 43
-38 83 -75 89 -80 33 -32 306 -263 396 -335 58 -47 107 -87 110 -90 3 -3 25
-21 50 -40 25 -19 50 -38 55 -43 116 -97 562 -416 813 -582 174 -115 544 -345
582 -362 8 -4 59 -33 113 -65 54 -32 100 -58 101 -58 2 0 61 -32 132 -71 142
-78 548 -281 689 -346 50 -23 121 -55 159 -73 183 -83 647 -270 816 -329 36
-13 74 -27 85 -32 49 -22 519 -173 695 -224 200 -58 570 -155 688 -181 37 -8
74 -16 82 -18 16 -4 247 -53 290 -61 129 -26 422 -78 535 -95 77 -11 151 -23
165 -25 14 -2 50 -7 80 -10 30 -4 62 -9 70 -10 18 -3 105 -13 175 -20 54 -6
119 -13 175 -20 19 -3 70 -7 113 -11 43 -3 86 -7 96 -9 9 -2 68 -6 131 -10 62
-4 121 -8 129 -10 138 -26 1325 -26 1636 0 22 2 83 6 135 10 102 6 178 12 250
20 25 3 72 8 105 11 59 5 356 40 419 49 17 3 81 12 141 20 61 9 133 20 160 25
28 5 68 12 90 15 22 2 51 7 65 10 14 3 77 14 140 25 131 24 317 62 512 105
356 79 904 235 1283 366 239 82 663 243 800 304 446 198 443 196 695 321 468
231 932 500 1380 800 297 199 290 194 520 364 308 229 756 595 931 760 8 8 69
64 135 125 165 152 565 553 714 715 186 203 189 207 285 320 50 58 92 107 95
110 28 25 335 413 472 595 170 228 483 682 568 826 8 14 72 120 141 235 508
842 928 1785 1222 2739 54 177 61 200 63 210 1 6 20 75 42 155 38 137 115 435
126 490 3 14 7 34 10 45 22 94 92 437 110 538 5 29 24 129 30 162 2 11 7 45
11 75 4 30 9 64 11 75 2 10 6 35 9 55 3 20 7 45 9 55 2 11 7 43 10 70 4 28 11
86 17 130 14 113 20 156 24 185 2 14 6 54 10 90 3 36 7 81 10 100 4 35 14 140
20 215 2 22 7 81 10 130 3 50 8 113 10 140 27 361 27 1250 0 1605 -2 25 -6 90
-10 145 -3 55 -8 116 -10 135 -2 19 -6 73 -10 120 -4 47 -8 92 -10 100 -2 8
-7 49 -10 90 -3 41 -8 86 -10 100 -4 22 -11 85 -20 160 -1 14 -5 43 -8 65 -4
22 -9 60 -12 85 -3 25 -8 52 -10 60 -2 8 -6 38 -10 65 -3 28 -10 75 -15 105
-5 30 -12 73 -15 95 -4 22 -8 47 -10 55 -2 8 -7 38 -11 65 -3 28 -8 53 -10 56
-2 4 -6 24 -10 45 -3 22 -24 125 -45 229 -22 105 -42 204 -45 220 -3 17 -28
120 -56 230 -27 110 -51 207 -53 215 -2 8 -17 65 -35 125 -17 61 -33 118 -35
128 -10 48 -124 411 -182 581 -107 314 -288 783 -387 999 -13 29 -52 115 -87
192 -80 177 -276 571 -367 736 -38 69 -85 155 -105 191 -59 107 -256 436 -324
540 -35 54 -63 102 -63 107 0 5 -3 11 -7 13 -5 2 -44 57 -87 123 -145 219
-536 762 -566 785 -3 3 -30 35 -58 73 -221 291 -616 732 -971 1087 -302 301
-435 426 -660 620 -35 30 -69 60 -75 65 -12 12 -250 210 -288 240 -452 363
-903 679 -1386 974 -74 44 -136 81 -138 81 -2 0 -23 12 -45 26 -43 27 -49 30
-284 161 -669 373 -1549 746 -2310 980 -409 126 -1024 280 -1305 328 -19 3
-80 15 -135 25 -55 11 -116 22 -135 25 -19 3 -46 7 -60 10 -14 3 -38 7 -55 9
-16 3 -43 7 -60 10 -70 11 -314 46 -365 51 -30 3 -62 8 -70 10 -8 2 -44 6 -80
10 -36 3 -75 7 -85 9 -11 2 -56 7 -100 10 -44 4 -91 9 -105 11 -14 2 -63 6
-110 10 -47 4 -101 8 -120 10 -19 2 -89 6 -155 10 -66 4 -142 9 -170 11 -61 5
-1072 14 -1077 9z m1047 -259 c33 -3 110 -7 170 -11 61 -3 133 -8 160 -11 28
-2 77 -6 110 -9 149 -11 212 -17 235 -20 14 -2 52 -7 85 -10 33 -4 71 -8 85
-10 14 -2 54 -7 90 -10 36 -4 74 -9 84 -11 20 -4 137 -20 211 -29 35 -5 399
-66 479 -81 35 -6 404 -83 426 -89 36 -8 117 -27 135 -31 11 -2 74 -17 140
-34 66 -17 129 -33 140 -35 28 -6 452 -128 550 -158 122 -38 442 -146 515
-174 36 -13 88 -33 115 -43 762 -282 1631 -715 2285 -1138 219 -142 285 -186
288 -194 2 -4 7 -8 12 -8 26 0 692 -491 850 -626 14 -12 86 -72 160 -134 124
-103 233 -197 302 -260 14 -14 44 -40 65 -59 232 -206 580 -554 878 -877 52
-57 202 -228 220 -252 6 -7 22 -25 36 -40 88 -92 457 -564 639 -816 157 -219
570 -850 570 -871 0 -2 33 -59 73 -126 40 -68 95 -164 122 -214 27 -49 69
-126 92 -170 43 -79 259 -513 323 -650 165 -352 469 -1142 548 -1425 6 -19 28
-93 50 -165 59 -192 163 -576 176 -649 1 -6 5 -20 9 -31 3 -11 8 -31 11 -45 2
-14 14 -68 26 -120 24 -106 28 -124 35 -159 2 -14 9 -47 15 -75 13 -65 16 -79
40 -206 27 -148 30 -161 36 -200 3 -19 9 -60 14 -90 5 -30 12 -73 15 -95 5
-39 10 -70 20 -130 3 -16 8 -57 11 -90 3 -33 7 -62 9 -65 2 -3 6 -37 10 -75 3
-39 8 -81 10 -95 3 -14 7 -52 10 -85 3 -33 8 -71 10 -85 2 -14 7 -63 11 -110
3 -47 8 -92 9 -102 2 -9 6 -65 10 -125 4 -59 8 -126 10 -148 27 -337 27 -1183
0 -1580 -8 -116 -16 -230 -20 -265 -2 -19 -6 -71 -10 -115 -3 -43 -8 -93 -10
-110 -2 -16 -12 -95 -20 -175 -9 -80 -18 -156 -20 -170 -13 -85 -26 -181 -30
-215 -3 -22 -7 -51 -10 -65 -2 -14 -7 -38 -9 -55 -93 -597 -218 -1123 -435
-1830 -126 -409 -315 -892 -562 -1435 -100 -222 -348 -700 -463 -893 -25 -43
-46 -81 -46 -83 0 -11 -268 -441 -383 -614 -114 -171 -361 -526 -377 -540 -3
-3 -18 -23 -34 -45 -35 -47 -263 -341 -287 -370 -10 -11 -45 -54 -79 -95 -35
-41 -83 -99 -109 -129 -71 -83 -73 -85 -126 -147 -203 -237 -563 -608 -854
-883 -384 -362 -849 -746 -1246 -1029 -81 -58 -195 -139 -220 -156 -237 -167
-764 -492 -1030 -637 -44 -23 -116 -62 -160 -86 -129 -71 -588 -296 -740 -363
-328 -146 -681 -287 -949 -380 -61 -21 -145 -49 -186 -64 -252 -86 -850 -258
-1015 -290 -11 -3 -87 -20 -170 -39 -82 -20 -211 -47 -285 -62 -74 -15 -144
-28 -155 -31 -22 -4 -182 -32 -234 -40 -18 -3 -43 -7 -55 -10 -36 -7 -282 -44
-328 -49 -23 -3 -74 -10 -113 -15 -38 -5 -92 -12 -120 -15 -27 -3 -66 -7 -85
-9 -19 -2 -64 -7 -100 -11 -36 -3 -81 -8 -100 -10 -58 -7 -160 -15 -245 -20
-44 -3 -107 -7 -140 -10 -336 -27 -1194 -27 -1560 -1 -33 3 -105 8 -160 11
-55 3 -113 8 -130 10 -16 2 -66 7 -110 10 -44 3 -91 7 -105 10 -14 2 -55 7
-92 10 -37 3 -77 8 -90 10 -13 2 -45 6 -73 10 -66 7 -204 25 -235 30 -14 2
-61 9 -105 15 -112 16 -144 21 -169 26 -29 5 -123 22 -166 29 -57 10 -418 82
-515 104 -459 102 -925 235 -1375 393 -182 63 -458 167 -517 194 -17 8 -33 14
-36 14 -3 0 -70 27 -149 61 -153 64 -158 66 -290 128 -48 22 -111 50 -140 63
-59 24 -553 273 -663 333 -577 316 -1244 752 -1685 1103 -30 24 -62 49 -70 55
-636 496 -1346 1186 -1855 1802 -27 33 -52 62 -56 65 -12 10 -240 301 -337
430 -56 74 -105 140 -110 145 -79 102 -333 476 -469 690 -107 169 -323 530
-323 541 0 2 -13 25 -29 51 -90 147 -356 679 -490 980 -44 101 -81 185 -81
188 0 4 -11 30 -24 58 -23 51 -100 237 -102 247 0 3 -6 19 -13 35 -86 206
-301 844 -364 1080 -3 11 -22 78 -41 150 -54 190 -144 568 -180 751 -35 174
-59 302 -76 404 -37 221 -39 235 -60 386 -6 44 -12 89 -14 100 -2 10 -7 48
-11 84 -4 36 -8 76 -10 90 -15 133 -21 184 -29 280 -4 41 -8 95 -11 120 -11
115 -21 267 -32 495 -15 304 -8 1140 12 1345 2 19 6 85 10 145 4 61 8 123 10
138 2 15 6 60 10 100 3 40 8 88 10 107 2 19 7 60 10 90 3 30 7 71 10 90 7 50
14 107 20 162 3 26 7 63 10 82 3 20 7 53 10 74 7 45 14 88 20 122 3 14 7 48
11 75 3 28 8 59 10 70 2 11 7 34 9 50 21 122 59 321 91 479 47 236 175 740
250 986 129 422 348 1032 459 1275 8 16 46 104 85 195 272 627 723 1426 1132
2011 29 42 68 98 87 125 117 167 496 659 547 712 7 7 30 34 51 60 21 26 43 52
48 58 6 6 33 37 60 70 56 66 105 121 224 253 362 400 834 852 1262 1207 123
103 201 165 478 382 19 15 44 34 57 42 12 8 69 49 126 91 350 256 796 542
1193 764 28 16 82 46 120 68 94 52 588 303 695 352 214 97 333 150 435 192 61
25 124 51 140 58 69 31 369 145 515 196 429 149 734 241 1129 339 174 43 421
101 491 113 14 3 36 8 50 11 14 3 39 8 55 11 17 3 77 14 135 25 155 29 153 28
185 33 17 3 59 10 95 15 36 6 83 13 105 17 22 3 47 7 55 10 8 2 40 6 71 10 31
3 66 7 77 10 12 2 52 7 89 10 37 4 70 9 73 10 3 2 34 6 70 9 66 7 117 13 180
21 19 2 73 7 120 10 47 4 96 8 110 10 14 2 70 7 125 10 55 4 118 9 140 10 22
2 117 7 210 10 94 4 172 9 174 10 5 5 946 -3 1016 -9z"/>
<path d="M15325 23971 c3 -6 1 -11 -4 -11 -9 0 -9 -37 0 -47 3 -5 6 -22 8 -40
1 -14 3 -15 10 -5 4 8 10 13 12 12 8 -4 79 34 79 42 0 4 7 5 15 2 8 -4 15 -2
15 4 0 8 -45 24 -65 23 -2 0 -21 7 -41 15 -20 8 -33 10 -29 5z m40 -20 c3 -5
0 -13 -6 -17 -7 -4 -9 -3 -5 4 3 5 0 13 -6 15 -9 4 -10 6 -1 6 6 1 14 -3 18
-8z m45 -25 c0 -8 -7 -16 -15 -20 -12 -4 -13 -2 -2 14 14 24 17 25 17 6z"/>
<path d="M9033 23722 c-7 -4 -9 -13 -4 -21 6 -9 10 -7 14 8 3 12 4 21 4 21 -1
0 -7 -4 -14 -8z"/>
<path d="M9266 22905 c4 -8 11 -15 18 -15 6 0 4 -5 -4 -10 -10 -6 -11 -10 -2
-10 6 0 11 -3 11 -7 -1 -5 -1 -10 1 -13 1 -3 3 -18 5 -34 2 -16 9 -34 14 -39
7 -7 9 -4 6 11 -3 12 -7 31 -9 42 -3 13 -1 18 6 14 7 -4 8 -2 4 5 -4 6 -13 8
-19 5 -7 -4 -8 -3 -4 1 9 11 37 16 35 7 -1 -4 4 -18 11 -31 10 -18 10 -22 0
-16 -8 6 -10 4 -4 -5 5 -9 4 -11 -3 -6 -8 5 -10 2 -6 -8 6 -16 46 -13 69 5 6
4 13 8 18 8 4 0 15 5 25 11 16 11 16 11 0 6 -10 -3 -18 -1 -18 5 0 6 -6 9 -14
6 -8 -3 -22 3 -31 13 -10 11 -20 19 -24 19 -12 -2 -51 13 -51 20 0 3 -9 12
-20 18 -16 11 -18 10 -14 -2z m115 -71 c11 -10 23 -17 26 -16 3 2 5 2 6 0 1
-1 0 -2 -2 -1 -2 2 -10 -2 -18 -8 -7 -6 -13 -8 -13 -5 0 4 -10 2 -22 -4 -21
-10 -21 -9 2 9 14 12 18 19 10 16 -8 -3 -20 3 -27 14 -16 26 7 23 38 -5z"/>
<path d="M9315 22830 c-3 -5 -1 -10 4 -10 6 0 11 5 11 10 0 6 -2 10 -4 10 -3
0 -8 -4 -11 -10z"/>
<path d="M12208 22515 c-1 -1 -59 -6 -128 -9 -69 -4 -145 -9 -170 -11 -25 -2
-81 -7 -125 -10 -92 -6 -135 -11 -260 -25 -49 -6 -110 -13 -135 -16 -52 -6
-102 -12 -145 -19 -16 -3 -48 -7 -70 -10 -479 -65 -1113 -214 -1630 -384 -267
-88 -668 -239 -840 -316 -280 -127 -378 -173 -552 -262 -357 -181 -661 -358
-998 -582 -104 -69 -194 -129 -200 -133 -5 -4 -30 -22 -55 -41 -222 -161 -293
-215 -415 -311 -114 -90 -383 -316 -431 -361 -6 -5 -53 -48 -105 -95 -116
-103 -528 -516 -626 -625 -39 -44 -82 -92 -95 -106 -12 -14 -37 -41 -53 -60
-48 -53 -277 -329 -315 -379 -19 -25 -37 -47 -40 -50 -26 -23 -273 -366 -450
-625 -85 -124 -254 -402 -372 -610 -429 -758 -771 -1619 -978 -2461 -45 -184
-82 -344 -96 -424 -2 -14 -9 -48 -15 -76 -5 -28 -12 -64 -15 -80 -2 -16 -9
-51 -14 -79 -5 -27 -12 -68 -16 -90 -9 -68 -15 -99 -19 -115 -4 -16 -14 -91
-21 -150 -2 -19 -8 -66 -13 -105 -10 -72 -16 -115 -26 -220 -4 -33 -8 -71 -10
-85 -2 -14 -7 -65 -10 -115 -4 -49 -8 -106 -10 -125 -14 -140 -19 -355 -19
-735 0 -441 3 -533 29 -845 12 -142 44 -422 60 -525 3 -16 7 -50 10 -74 8 -62
60 -367 84 -486 148 -748 396 -1508 719 -2205 84 -182 234 -482 289 -580 11
-19 35 -62 53 -95 188 -339 451 -744 704 -1085 81 -109 205 -269 223 -288 8
-8 26 -30 41 -50 31 -42 32 -44 177 -212 274 -319 681 -730 965 -976 25 -21
47 -42 50 -45 3 -3 66 -56 140 -118 462 -385 962 -732 1465 -1016 191 -108
205 -116 420 -225 761 -387 1599 -680 2445 -856 117 -24 147 -30 290 -54 30
-6 66 -12 80 -15 14 -3 43 -7 65 -10 22 -3 69 -10 105 -16 36 -6 81 -12 100
-14 19 -3 49 -7 65 -9 17 -3 53 -8 80 -11 28 -3 64 -8 80 -10 17 -2 56 -6 88
-9 31 -3 81 -8 110 -11 121 -12 146 -14 222 -19 44 -3 118 -8 165 -11 209 -14
719 -20 925 -10 276 13 371 19 495 30 30 3 80 8 110 10 56 6 106 11 183 20 23
3 58 7 77 9 19 2 73 9 120 16 47 7 94 13 105 15 11 1 40 5 65 9 25 4 59 10 75
12 527 80 1204 255 1765 457 144 51 346 130 407 158 24 10 45 19 48 19 28 0
655 297 850 403 307 166 526 297 805 482 157 104 478 332 545 387 11 9 78 62
149 118 71 56 141 112 155 125 14 12 78 66 141 120 365 312 758 708 1097 1105
264 310 553 699 770 1040 111 173 243 388 243 396 0 2 12 23 26 45 87 139 341
635 434 849 18 41 45 102 60 135 131 287 325 833 435 1225 25 91 52 185 60
210 7 25 21 79 30 120 9 41 18 82 20 90 2 8 16 67 30 130 15 63 29 126 31 140
3 14 11 59 19 100 9 41 17 86 20 100 8 42 34 193 40 235 4 22 8 54 11 70 3 17
7 41 9 55 6 41 24 172 30 220 3 25 7 61 10 80 3 19 7 64 10 100 4 36 8 81 10
100 50 443 59 1203 20 1690 -17 205 -25 288 -30 320 -3 14 -7 52 -10 85 -5 53
-16 143 -31 255 -6 42 -53 334 -60 370 -3 14 -9 48 -14 75 -34 184 -55 283
-111 515 -53 221 -150 554 -229 790 -49 147 -129 370 -149 415 -5 11 -19 47
-32 80 -152 403 -472 1049 -715 1447 -16 26 -49 80 -73 120 -44 73 -303 464
-364 548 -179 249 -504 656 -632 794 -6 6 -53 58 -105 116 -190 213 -602 614
-825 805 -44 37 -106 90 -137 118 -133 114 -506 403 -618 477 -12 8 -32 22
-44 31 -62 47 -319 217 -441 293 -77 48 -147 91 -155 96 -8 5 -82 48 -165 96
-460 266 -970 507 -1437 679 -84 31 -162 61 -173 66 -65 28 -460 152 -715 223
-151 42 -476 120 -590 142 -14 3 -56 11 -95 19 -38 8 -86 17 -105 20 -19 3
-55 9 -80 15 -25 5 -79 14 -120 20 -41 7 -86 14 -100 16 -26 4 -218 31 -280
39 -33 4 -77 9 -175 20 -67 7 -255 24 -340 30 -44 4 -114 9 -155 12 -82 6
-976 14 -982 8z m972 -259 c30 -2 98 -7 150 -10 52 -4 111 -9 130 -11 19 -2
69 -7 110 -10 41 -3 86 -8 100 -10 14 -2 52 -7 85 -10 33 -3 78 -8 100 -11 22
-3 51 -7 65 -9 143 -20 201 -29 295 -45 61 -11 126 -22 145 -25 66 -11 325
-64 395 -80 39 -9 78 -18 88 -20 9 -2 81 -20 160 -40 337 -85 640 -180 977
-305 215 -80 302 -115 422 -169 26 -11 50 -21 52 -21 5 0 89 -38 281 -128 97
-45 283 -138 389 -194 16 -9 -7 -36 -199 -228 -207 -207 -218 -220 -219 -257
0 -42 -1 -37 45 -303 17 -102 33 -198 35 -215 2 -16 8 -50 14 -75 5 -25 12
-61 15 -80 2 -19 7 -46 9 -60 8 -43 45 -264 50 -295 3 -16 8 -48 11 -70 3 -22
8 -51 11 -65 2 -14 6 -35 9 -47 3 -18 -67 -93 -382 -408 l-386 -386 -171 170
-170 170 385 386 c211 212 388 397 393 411 7 22 0 93 -19 195 -3 15 -51 303
-60 359 -2 14 -11 63 -19 110 -8 47 -18 105 -21 130 -4 25 -8 50 -9 55 -2 6
-6 32 -11 60 -16 99 -107 138 -177 76 -33 -30 -39 -59 -26 -136 3 -16 34 -199
68 -405 l63 -376 -357 -359 -356 -359 -978 975 c-835 834 -1099 1089 -1126
1089 -3 0 -36 19 -73 43 -172 110 -413 195 -638 225 -106 14 -465 6 -493 -12
-4 -2 -27 -7 -51 -11 -55 -8 -206 -51 -248 -70 -17 -8 -34 -15 -37 -15 -11 0
-140 -63 -201 -98 -176 -102 -200 -125 -1513 -1436 -705 -705 -1286 -1282
-1290 -1284 -12 -4 -815 805 -809 815 5 7 39 194 82 453 3 14 7 36 9 50 3 14
8 41 10 60 3 19 8 46 10 60 3 14 14 82 26 152 11 69 22 135 24 145 27 137 48
295 42 317 -4 16 -86 106 -216 236 -116 115 -210 213 -210 217 0 10 247 143
264 143 10 0 356 -339 464 -454 2 -2 -9 -73 -23 -157 -15 -85 -28 -167 -31
-184 -2 -16 -9 -55 -14 -85 -5 -30 -12 -70 -15 -87 -3 -18 -7 -45 -10 -60 -2
-16 -7 -44 -10 -63 -3 -19 -10 -60 -15 -90 -5 -30 -12 -70 -15 -87 -3 -18 -7
-48 -10 -65 -8 -47 -23 -138 -30 -173 -17 -94 -16 -130 4 -162 34 -55 119 -61
161 -13 18 20 33 72 45 155 12 76 16 100 26 155 5 30 11 69 14 85 3 17 9 57
15 90 5 33 12 76 15 95 2 19 7 46 9 60 3 14 10 54 16 90 5 36 12 75 14 87 3
11 8 43 12 70 5 26 9 50 9 53 1 3 5 28 9 55 4 28 10 64 13 80 3 17 7 39 8 50
2 11 6 36 9 55 14 78 14 99 0 125 -7 14 -114 128 -236 251 -123 124 -225 227
-227 229 -2 2 12 10 30 18 19 8 68 30 109 50 510 239 1250 499 1710 602 8 2
80 19 160 38 136 33 328 73 465 97 33 5 71 12 85 15 13 3 42 7 65 10 22 3 65
10 95 15 64 10 95 15 210 30 47 6 101 13 120 15 19 3 61 7 92 10 32 3 75 8 95
10 21 2 79 7 128 10 50 4 101 9 115 11 14 1 95 6 180 9 85 4 157 9 159 11 5 4
852 -4 921 -10z m-330 -1024 c226 -41 408 -118 594 -250 59 -42 1049 -1026
3780 -3757 3004 -3003 3713 -3718 3765 -3790 103 -147 194 -345 222 -487 6
-29 12 -62 14 -73 24 -122 30 -309 13 -430 -18 -131 -57 -270 -109 -382 -10
-24 -19 -45 -19 -48 0 -12 -98 -169 -148 -235 -34 -46 -1479 -1498 -3722
-3740 -2016 -2016 -3684 -3681 -3705 -3701 -183 -163 -437 -280 -710 -324 -79
-13 -340 -13 -400 -1 -16 4 -55 11 -85 17 -205 39 -472 171 -624 308 -86 78
-7344 7340 -7392 7396 -66 77 -122 162 -168 252 -42 85 -93 211 -100 248 -3
15 -9 41 -15 58 -32 101 -49 373 -31 497 41 281 126 487 290 695 30 39 1713
1728 3740 3755 3013 3012 3702 3697 3775 3749 193 136 423 226 635 248 30 3
57 7 59 9 8 7 287 -5 341 -14z m4609 -259 c274 -159 829 -522 861 -564 3 -3
15 -11 28 -18 13 -7 22 -16 20 -21 -2 -5 -155 -163 -340 -350 -186 -187 -339
-348 -339 -357 -3 -38 2 -78 56 -403 30 -184 62 -349 71 -366 30 -60 104 -72
156 -25 35 31 41 68 26 156 -12 73 -38 220 -42 240 -4 21 -14 87 -22 140 -2
17 -9 53 -14 80 -23 121 -54 77 304 434 l322 322 133 -107 133 -107 -293 -293
c-282 -282 -293 -295 -293 -331 0 -38 12 -135 19 -163 2 -8 7 -30 10 -47 16
-99 22 -134 30 -173 2 -13 7 -40 10 -60 3 -19 9 -60 14 -90 l10 -55 -582 -583
-582 -582 -435 435 -435 435 418 418 c229 230 418 425 418 435 1 9 2 23 3 30
1 6 -4 46 -11 87 -7 41 -16 95 -19 120 -3 25 -8 48 -10 51 -2 4 -8 38 -14 75
-5 38 -12 80 -15 94 -5 26 -13 68 -20 110 -2 14 -18 108 -35 210 -18 102 -33
196 -35 210 -2 14 -13 78 -24 143 -12 66 -18 124 -13 131 13 22 397 405 406
405 5 1 62 -29 125 -66z m-9480 -217 l205 -205 -12 -73 c-6 -40 -14 -84 -16
-98 -3 -14 -19 -108 -36 -210 -17 -102 -33 -196 -35 -210 -3 -14 -12 -68 -21
-120 -8 -52 -17 -106 -20 -120 -2 -14 -7 -41 -10 -60 -2 -19 -9 -57 -15 -85
-5 -27 -16 -90 -24 -140 -27 -163 -71 -100 421 -593 l435 -436 -138 -138 -138
-138 -457 457 -457 458 9 45 c4 25 10 59 13 75 3 17 10 59 16 95 14 73 17 94
28 159 4 25 8 48 8 51 2 7 16 89 21 125 10 56 122 717 129 755 11 63 13 104 5
124 -4 13 -81 96 -170 186 -88 89 -160 166 -158 171 3 9 196 127 208 128 3 1
97 -91 209 -203z m-451 -199 c139 -139 153 -156 148 -183 -2 -16 -8 -49 -11
-74 -8 -50 -11 -63 -24 -135 -6 -27 -13 -66 -15 -85 -3 -19 -8 -48 -11 -65 -9
-53 -17 -99 -21 -120 -7 -44 -44 -262 -50 -299 -3 -21 -7 -48 -10 -60 -6 -33
-63 -376 -69 -421 -4 -22 -10 -53 -14 -70 -10 -37 -5 -69 14 -98 8 -12 225
-231 481 -487 256 -256 468 -469 471 -473 6 -9 -235 -257 -249 -257 -4 0 -232
224 -506 498 l-498 497 8 35 c4 19 10 55 13 80 3 25 13 85 21 134 9 49 13 100
9 114 -4 16 -171 190 -426 445 -230 231 -419 423 -419 428 0 4 39 40 88 79 48
40 98 81 112 93 14 12 79 63 145 114 66 51 125 96 130 101 106 82 510 362 524
362 3 0 75 -69 159 -153z m11549 -763 c48 -44 103 -94 121 -110 l33 -29 -180
-180 c-202 -201 -220 -228 -187 -289 10 -18 32 -40 49 -48 63 -29 84 -15 286
185 l186 185 136 -141 c125 -130 214 -225 283 -301 14 -16 26 -32 26 -35 0 -4
-179 -185 -397 -403 l-398 -397 -130 24 c-189 33 -215 36 -238 24 -12 -6 -259
-248 -549 -537 l-528 -527 -140 140 c-77 77 -140 142 -140 145 0 4 264 269
586 591 322 321 598 601 614 622 17 22 27 47 25 60 -2 12 -7 45 -11 72 -4 28
-8 55 -10 60 -1 6 -5 30 -9 55 -3 25 -15 95 -25 155 -26 149 -33 196 -34 224
-1 18 60 85 259 285 143 144 265 260 272 257 6 -3 51 -42 100 -87z m-12092
-875 c-10 -57 -19 -113 -22 -124 -2 -11 -6 -49 -10 -83 l-6 -64 537 -537 536
-536 -143 -143 -142 -142 -605 605 c-333 332 -617 610 -632 616 -23 9 -102 6
-148 -6 -3 -1 -25 -5 -50 -9 -25 -5 -54 -10 -65 -12 -11 -2 -49 -9 -85 -15
-111 -17 -123 -19 -185 -30 -33 -6 -66 -12 -73 -13 -21 -4 -543 524 -534 539
4 7 48 57 97 110 50 54 98 107 107 118 22 24 3 39 222 -179 162 -161 177 -174
211 -174 76 0 127 60 110 128 -4 17 -78 99 -192 214 l-185 186 89 89 c118 116
254 245 327 311 l59 54 400 -400 399 -399 -17 -104z m13101 -181 c232 -285
634 -838 634 -874 0 -4 -68 -75 -150 -159 l-151 -151 -252 42 c-139 24 -268
46 -287 49 -19 3 -48 8 -65 11 -16 3 -41 7 -55 9 -22 4 -58 10 -165 29 -66 11
-392 66 -430 71 -22 4 -47 8 -55 10 -40 11 -95 16 -119 10 -17 -4 -200 -180
-511 -491 l-485 -484 -129 129 -129 129 502 501 c490 491 502 502 533 496 218
-39 307 -50 334 -42 18 7 187 168 447 429 231 230 420 418 422 418 1 0 51 -60
111 -132z m-14579 -239 l291 -292 64 6 c50 5 287 43 448 72 14 3 45 8 70 11
l45 5 572 -573 c315 -315 576 -577 580 -581 4 -4 -188 -203 -427 -442 l-435
-435 -417 417 -418 418 -47 0 c-43 0 -79 -5 -163 -20 -14 -2 -81 -14 -150 -25
-69 -12 -136 -23 -150 -26 -14 -2 -65 -11 -115 -19 -49 -9 -101 -18 -115 -20
-64 -12 -77 -14 -110 -19 -19 -3 -91 -15 -160 -27 -69 -11 -138 -23 -155 -26
-16 -2 -47 -8 -68 -13 l-38 -8 -206 206 -206 205 27 52 c103 197 413 680 602
937 l41 57 342 -340 c200 -199 351 -341 366 -345 14 -3 42 -3 63 1 20 4 51 9
69 11 18 2 85 13 150 24 65 12 159 28 208 36 50 8 101 17 115 19 14 3 54 10
90 15 49 8 72 18 93 39 53 52 32 139 -39 166 -28 11 -106 1 -504 -68 -14 -3
-60 -10 -103 -17 l-79 -13 -321 321 -320 320 65 84 c36 45 74 93 85 105 11 12
28 33 38 47 11 14 22 26 25 26 2 0 136 -131 297 -291z m15397 -922 c30 -51 58
-100 60 -108 4 -9 -67 -87 -197 -216 l-203 -202 -114 19 c-119 19 -750 127
-785 134 -11 2 -42 7 -68 10 -27 4 -59 9 -70 12 -143 28 -206 34 -232 21 -11
-5 -211 -201 -444 -434 -233 -232 -426 -423 -430 -423 -10 0 -275 269 -271
274 8 9 816 818 863 864 l44 43 94 -15 c91 -15 115 -19 189 -32 19 -3 49 -8
65 -10 17 -2 53 -8 80 -14 28 -5 174 -30 325 -55 320 -54 313 -53 365 -60 22
-4 47 -8 55 -10 38 -11 189 -35 221 -35 46 0 60 11 239 191 80 81 148 145 152
143 3 -2 31 -46 62 -97z m226 -399 c24 -46 56 -106 71 -134 l28 -51 -225 -224
c-123 -123 -232 -225 -242 -227 -10 -2 -155 20 -323 48 -167 28 -317 53 -334
56 -16 2 -55 9 -85 14 -30 5 -68 12 -85 14 -24 4 -126 20 -310 51 -53 8 -115
-49 -115 -105 0 -31 25 -74 52 -88 18 -9 433 -84 598 -108 19 -3 58 -9 85 -14
28 -5 61 -11 75 -13 14 -3 129 -21 255 -42 140 -23 242 -35 259 -31 16 4 84
62 169 147 78 77 183 181 233 230 l91 90 63 -138 c101 -222 120 -264 120 -268
0 -3 11 -28 24 -57 13 -29 49 -120 81 -203 31 -82 61 -159 65 -170 53 -125
199 -586 262 -825 10 -41 28 -109 39 -150 20 -75 64 -263 73 -310 2 -14 18
-93 35 -175 17 -83 33 -169 36 -190 3 -22 9 -53 12 -70 3 -16 7 -40 9 -52 2
-23 13 -90 20 -128 2 -11 6 -40 9 -65 3 -25 7 -58 10 -75 16 -102 38 -310 50
-470 4 -44 8 -90 10 -103 26 -163 26 -1140 0 -1422 -2 -19 -6 -75 -10 -125 -8
-107 -12 -158 -19 -205 -3 -19 -8 -62 -12 -95 -8 -84 -43 -340 -54 -400 -5
-27 -11 -66 -14 -85 -20 -135 -111 -577 -145 -700 -6 -19 -12 -46 -15 -60 -21
-100 -130 -470 -196 -669 -94 -282 -216 -598 -335 -866 -63 -143 -228 -482
-271 -559 l-27 -48 -217 217 c-207 207 -220 218 -257 218 -41 1 -94 -6 -183
-23 -30 -6 -66 -12 -80 -15 -14 -2 -162 -27 -330 -55 -168 -28 -343 -58 -390
-66 -47 -9 -94 -17 -105 -18 -31 -5 -98 -17 -121 -21 -18 -4 -98 71 -409 382
l-386 387 170 170 170 169 386 -384 c212 -211 397 -388 412 -393 16 -5 52 -4
97 4 39 7 82 14 96 16 14 3 36 7 50 9 14 3 43 7 65 11 22 3 51 7 65 10 14 2
145 24 291 49 146 24 277 49 291 54 62 24 78 108 31 161 -33 37 -71 43 -160
24 -34 -7 -86 -16 -115 -19 -29 -4 -56 -9 -59 -10 -3 -2 -28 -7 -55 -10 -27
-4 -60 -8 -74 -11 -87 -16 -313 -55 -337 -58 -15 -2 -49 -7 -74 -11 l-46 -7
-359 356 -359 356 962 962 c529 530 979 984 1002 1011 189 222 322 521 366
822 20 143 13 407 -15 544 -37 183 -95 335 -201 528 -72 134 -166 232 -1425
1493 l-1274 1275 403 403 c380 380 405 403 433 397 16 -3 45 -8 64 -11 19 -2
46 -7 60 -10 14 -2 37 -7 53 -9 40 -7 138 -24 172 -30 17 -2 40 -7 51 -9 12
-2 39 -7 60 -10 22 -4 188 -32 369 -62 386 -66 373 -65 406 -48 15 7 116 103
225 213 110 110 204 200 210 201 5 0 30 -37 54 -82z m-16533 -485 c70 7 96 11
173 27 25 5 63 11 85 14 22 3 47 7 55 10 8 3 33 8 55 11 61 8 134 20 215 35
30 5 69 12 85 14 17 3 109 18 205 35 200 34 229 39 286 47 l40 6 382 -381
c210 -210 382 -385 382 -389 0 -4 -74 -81 -164 -171 -117 -116 -168 -161 -177
-155 -8 4 -181 174 -385 377 -205 204 -379 374 -389 379 -31 18 -41 16 -475
-57 -60 -10 -97 -16 -125 -21 -16 -2 -55 -9 -85 -14 -30 -5 -72 -12 -94 -16
-21 -3 -47 -7 -56 -9 -10 -2 -40 -7 -67 -11 -92 -13 -133 -53 -127 -123 4 -53
43 -85 105 -87 28 -1 65 2 82 6 18 5 50 11 72 14 22 3 65 10 95 15 30 6 75 13
100 16 24 4 47 8 50 10 3 2 33 7 65 10 33 4 62 9 65 10 3 2 26 6 50 10 25 3
52 8 60 10 8 2 33 7 55 10 43 6 73 11 117 20 24 6 58 -25 387 -352 l361 -358
-951 -950 c-522 -523 -974 -979 -1003 -1015 -106 -129 -186 -261 -249 -410
-85 -203 -126 -412 -125 -647 2 -367 121 -711 347 -1000 31 -39 624 -640 1318
-1335 l1263 -1263 -403 -402 -402 -403 -115 20 c-63 10 -194 32 -290 49 -96
16 -193 32 -215 36 -22 4 -49 8 -60 10 -11 2 -33 6 -50 9 -16 3 -47 8 -69 11
-21 4 -48 9 -60 11 -49 9 -134 24 -171 29 -22 4 -47 8 -55 10 -8 2 -37 7 -65
11 -27 3 -58 8 -68 10 -10 2 -28 -1 -40 -5 -12 -5 -117 -104 -234 -220 l-211
-211 -22 38 c-12 20 -25 44 -30 53 -5 9 -29 55 -54 102 l-45 86 230 228 c127
125 234 227 237 226 4 -1 25 -4 47 -7 23 -4 52 -9 65 -11 14 -3 45 -8 70 -11
25 -3 52 -7 61 -10 9 -3 32 -7 50 -9 19 -3 45 -7 59 -10 14 -3 45 -8 70 -11
25 -3 54 -8 65 -10 11 -3 36 -7 55 -10 19 -2 58 -9 85 -14 28 -5 66 -12 85
-14 19 -3 46 -8 60 -10 35 -6 329 -55 360 -59 58 -9 120 41 120 98 0 33 -25
82 -48 94 -9 5 -37 12 -62 16 -25 4 -54 9 -65 11 -11 3 -36 7 -55 10 -56 8
-203 33 -230 39 -14 3 -41 7 -60 10 -36 5 -121 18 -130 20 -3 1 -27 5 -55 10
-55 8 -77 12 -115 19 -14 3 -41 7 -60 10 -19 3 -103 17 -186 31 -211 35 -232
38 -260 31 -15 -4 -125 -105 -257 -236 l-232 -229 -31 62 c-17 34 -62 132 -99
217 -37 85 -73 169 -80 185 -127 286 -324 873 -430 1280 -57 220 -142 618
-169 790 -2 17 -9 62 -16 100 -16 102 -18 115 -25 170 -4 28 -9 62 -11 76 -7
47 -16 113 -19 144 -1 17 -6 62 -9 100 -4 39 -9 84 -11 100 -4 30 -15 153 -20
235 -27 376 -27 1094 0 1425 12 140 32 351 40 415 7 57 16 123 20 150 2 14 7
49 10 79 4 30 8 61 10 70 1 9 6 36 10 61 3 25 9 59 11 75 3 17 7 45 10 64 3
25 76 393 99 501 13 63 93 375 121 474 139 489 317 971 519 1411 52 114 195
404 218 443 l20 34 218 -218 218 -217 68 6z m14343 -8148 c244 -244 424 -416
435 -416 46 -4 48 -3 315 42 96 17 189 32 205 35 17 2 66 11 110 19 44 8 100
17 125 20 24 4 47 8 50 10 3 2 26 6 50 9 25 3 56 8 70 11 51 10 76 14 110 19
19 3 73 12 120 20 47 9 88 16 93 16 7 0 379 -369 405 -402 12 -15 9 -25 -19
-75 -124 -219 -342 -563 -487 -768 -131 -185 -146 -205 -154 -203 -4 2 -160
154 -346 340 -221 219 -347 337 -363 340 -22 3 -67 -2 -144 -16 -16 -3 -48 -8
-70 -11 -22 -3 -80 -13 -130 -22 -49 -8 -103 -17 -120 -20 -31 -4 -125 -20
-160 -27 -11 -2 -45 -7 -75 -11 -108 -15 -155 -106 -91 -177 23 -25 36 -32 67
-32 39 0 144 13 154 19 3 2 33 7 65 10 33 4 62 9 65 10 3 2 26 6 50 10 58 8
83 12 147 24 59 12 140 24 165 25 10 1 154 -136 337 -318 l320 -320 -26 -35
c-15 -20 -63 -80 -107 -134 l-79 -98 -293 292 -293 292 -48 0 c-26 0 -104 -10
-173 -22 -69 -12 -138 -24 -155 -27 -16 -2 -68 -11 -115 -19 -47 -9 -96 -17
-110 -19 -22 -3 -105 76 -607 577 l-583 582 432 432 c238 238 435 433 438 433
2 0 192 -187 420 -415z m-11970 180 l135 -135 -455 -456 c-503 -504 -448 -460
-550 -440 -14 2 -59 10 -100 16 -41 7 -84 14 -95 16 -11 2 -74 13 -140 24 -66
11 -129 22 -140 24 -11 2 -40 7 -65 11 -25 4 -54 9 -65 11 -11 2 -60 11 -110
19 -49 8 -100 17 -112 19 -11 3 -43 8 -70 12 -26 3 -57 8 -68 10 -128 25 -315
54 -339 54 -43 0 -55 -10 -232 -187 l-156 -155 -64 108 c-35 60 -64 111 -64
114 0 3 91 96 203 207 l202 203 205 -35 c113 -19 222 -37 244 -40 21 -3 41 -7
45 -9 3 -2 33 -7 66 -11 32 -3 62 -8 65 -10 3 -2 23 -6 45 -9 22 -4 90 -15
150 -26 61 -10 124 -21 140 -24 69 -12 159 -27 214 -36 40 -7 68 -7 86 0 15 6
219 202 453 435 233 234 427 425 431 425 3 0 67 -61 141 -135z m42 -1044
l-502 -501 -36 6 c-20 3 -46 8 -58 10 -11 2 -41 7 -66 10 -25 3 -47 7 -50 9
-4 2 -100 16 -120 17 -44 2 -76 -27 -477 -427 -341 -340 -429 -423 -438 -413
-7 7 -36 42 -66 78 -202 244 -397 504 -581 775 l-96 140 158 159 c87 87 162
156 167 153 6 -4 321 -59 523 -92 41 -7 393 -67 411 -70 9 -2 34 -6 55 -9 22
-4 66 -11 99 -17 33 -6 69 -12 80 -14 11 -1 66 -10 122 -20 81 -14 108 -15
131 -6 15 6 244 228 507 491 l480 480 129 -129 129 -129 -501 -501z m792 210
c111 -111 137 -143 128 -153 -6 -8 -281 -284 -612 -615 -335 -335 -601 -609
-601 -619 -3 -40 7 -120 37 -284 10 -59 45 -268 50 -296 4 -30 -11 -47 -262
-298 l-267 -266 -51 47 c-99 92 -141 130 -174 159 l-33 29 176 175 c96 96 182
186 189 200 26 48 4 119 -45 143 -62 30 -81 18 -284 -183 l-190 -188 -146 151
c-196 203 -299 316 -299 327 0 3 179 184 398 402 l397 396 75 -13 c41 -7 91
-16 110 -19 19 -3 57 -10 84 -15 98 -18 65 -45 641 530 291 291 532 529 535
529 3 0 68 -63 144 -139z m10307 -556 c433 -434 613 -607 635 -614 23 -6 82 0
220 24 104 18 205 35 224 38 19 3 65 10 102 16 l67 11 266 -266 c214 -214 263
-268 253 -278 -7 -7 -44 -48 -83 -91 -38 -43 -86 -95 -105 -117 l-36 -38 -179
180 c-176 176 -215 205 -261 196 -59 -12 -99 -74 -83 -130 6 -20 74 -96 193
-216 l184 -185 -152 -147 c-83 -80 -171 -163 -194 -185 -24 -21 -62 -55 -83
-75 -22 -21 -43 -38 -47 -38 -10 0 -804 795 -798 800 2 3 6 24 10 48 3 24 13
84 22 135 22 123 24 160 9 186 -6 12 -247 258 -535 547 l-524 524 139 140 c77
77 142 140 146 140 3 0 278 -272 610 -605z m-9557 -1017 c-227 -227 -416 -422
-422 -433 -5 -11 -7 -33 -5 -50 5 -36 121 -729 128 -765 5 -26 12 -63 20 -115
2 -16 7 -41 9 -55 3 -14 8 -41 10 -60 3 -19 7 -44 10 -55 2 -11 9 -52 16 -92
l12 -72 -206 -205 c-114 -113 -209 -206 -213 -206 -9 0 -214 119 -357 208
-274 170 -671 443 -671 463 0 5 151 161 336 347 211 212 338 347 341 363 2 13
-17 152 -43 309 -54 325 -55 329 -64 390 -10 62 -33 98 -72 111 -70 23 -135
-20 -139 -89 -1 -21 4 -66 11 -99 7 -33 16 -84 19 -113 4 -29 8 -55 10 -59 2
-3 7 -28 10 -56 4 -27 8 -61 11 -75 3 -14 7 -41 10 -60 4 -19 13 -71 20 -115
l14 -80 -307 -310 c-169 -171 -315 -316 -324 -322 -17 -12 -60 18 -231 162
l-47 39 289 291 c159 159 292 300 295 311 4 12 -7 104 -24 205 -17 101 -33
198 -36 214 -3 17 -7 37 -9 45 -2 8 -7 40 -10 70 -4 30 -9 59 -12 64 -3 4 257
271 578 592 l584 584 435 -435 435 -435 -411 -412z m9017 692 l500 -500 -16
-92 c-9 -51 -18 -104 -20 -117 -7 -40 -19 -115 -20 -126 -4 -31 66 -107 442
-483 336 -336 412 -417 401 -427 -16 -15 -141 -119 -198 -165 -226 -183 -766
-570 -796 -570 -5 0 -77 68 -160 151 l-151 150 23 132 c29 170 31 183 39 237
8 50 11 63 24 135 6 28 13 66 15 85 6 33 8 49 22 130 3 19 7 44 9 55 2 11 13
76 25 145 12 69 23 134 24 145 11 66 19 112 22 130 26 126 35 219 25 243 -6
15 -227 243 -491 507 l-480 480 127 127 c70 71 129 128 131 128 2 0 228 -225
503 -500z m-450 -365 l451 -450 -6 -40 c-3 -22 -8 -51 -11 -65 -4 -21 -23
-137 -81 -475 -3 -16 -7 -43 -10 -60 -3 -16 -7 -43 -10 -60 -3 -16 -7 -41 -9
-55 -2 -14 -15 -90 -29 -170 -13 -80 -28 -165 -31 -190 -4 -24 -8 -47 -10 -50
-1 -3 -6 -27 -9 -55 -4 -27 -11 -68 -16 -90 -13 -54 -12 -112 1 -137 6 -11 81
-90 166 -175 85 -85 153 -159 150 -166 -2 -7 -50 -38 -106 -71 l-102 -59 -205
204 -205 204 7 40 c3 22 8 49 10 60 6 30 13 71 19 108 3 17 7 43 10 57 3 14 7
40 10 58 9 60 16 96 40 237 13 77 27 155 30 173 9 54 14 83 30 177 9 50 18
106 21 125 3 19 9 58 14 85 17 93 19 117 9 143 -5 14 -201 216 -434 450 -234
233 -425 427 -425 430 0 12 265 272 273 269 5 -1 211 -205 458 -452z m-110
-945 c-17 -96 -32 -184 -34 -195 -7 -33 -15 -82 -42 -245 -8 -52 -17 -107 -20
-123 -7 -39 -24 -137 -29 -172 -12 -70 -38 -222 -43 -250 -6 -33 -7 -59 -5
-91 1 -14 83 -103 218 -237 l215 -215 -73 -40 c-40 -22 -103 -56 -140 -75
l-66 -36 -224 225 c-208 210 -223 228 -224 262 0 20 3 53 7 72 4 19 10 53 13
75 4 22 11 65 16 95 5 30 12 69 14 85 3 17 32 194 66 395 33 201 62 374 64
385 6 40 -14 85 -47 105 -38 24 -68 25 -105 6 -38 -20 -50 -45 -67 -146 -16
-99 -67 -402 -71 -430 -3 -19 -17 -100 -30 -180 -14 -80 -27 -161 -29 -180 -3
-19 -16 -96 -29 -170 -40 -227 -58 -188 212 -461 l231 -234 -46 -24 c-155 -78
-538 -238 -813 -339 -388 -143 -958 -308 -1260 -366 -14 -2 -70 -14 -125 -26
-97 -20 -127 -26 -190 -36 -16 -2 -52 -9 -80 -14 -27 -5 -66 -12 -85 -15 -19
-3 -46 -8 -60 -10 -14 -3 -43 -7 -65 -10 -21 -2 -73 -9 -115 -15 -42 -6 -94
-13 -115 -15 -22 -3 -56 -7 -75 -10 -19 -2 -64 -7 -99 -10 -35 -4 -77 -8 -92
-10 -72 -9 -227 -21 -429 -32 -276 -15 -1028 -8 -1230 12 -19 2 -71 6 -115 9
-44 4 -96 8 -115 10 -19 3 -62 7 -95 10 -53 6 -160 19 -250 31 -16 2 -50 6
-75 10 -25 3 -70 10 -100 15 -30 5 -71 11 -90 14 -31 5 -218 37 -295 52 -160
29 -590 132 -785 188 -446 127 -965 317 -1365 501 -117 54 -466 226 -493 243
-23 15 -22 17 186 226 116 116 215 221 221 233 13 25 9 61 -19 208 -5 28 -12
64 -14 80 -3 17 -21 127 -41 245 -20 118 -38 229 -41 245 -2 17 -10 57 -16 90
-6 33 -12 69 -13 80 -2 11 -8 49 -15 85 -12 72 -15 88 -25 145 -3 22 -8 50
-11 62 -3 17 69 95 383 408 l387 386 170 -170 170 -170 -384 -386 c-212 -212
-388 -395 -393 -407 -7 -19 0 -123 9 -139 1 -3 6 -28 9 -55 4 -27 11 -67 15
-89 5 -22 12 -62 15 -90 3 -27 8 -61 11 -75 9 -40 10 -44 50 -285 35 -212 40
-232 65 -257 38 -39 97 -39 139 0 39 34 41 67 16 207 -10 55 -19 109 -21 120
-1 11 -5 36 -9 55 -8 49 -15 89 -22 130 -3 19 -14 85 -24 145 -27 161 -30 176
-36 221 l-6 41 356 359 357 358 982 -981 c618 -617 1010 -1001 1057 -1036 203
-147 424 -247 650 -293 123 -24 130 -25 305 -29 389 -10 734 105 1042 344 39
31 640 624 1335 1318 l1263 1263 403 -403 403 -403 -30 -174z"/>
<path d="M12569 17756 c-2 -2 -40 -6 -84 -10 -44 -3 -91 -8 -105 -10 -14 -3
-43 -7 -65 -11 -22 -3 -69 -13 -105 -21 -36 -9 -73 -17 -84 -19 -108 -23 -310
-97 -461 -169 -206 -99 -393 -222 -555 -365 -41 -36 -987 -979 -2103 -2094
-1315 -1315 -2034 -2041 -2043 -2063 -20 -48 -17 -103 7 -144 12 -19 142 -155
290 -302 215 -214 275 -269 306 -277 51 -14 67 -14 111 4 26 11 625 603 2092
2069 1289 1288 2081 2072 2125 2103 168 121 406 224 576 248 24 3 58 8 74 11
59 11 247 12 328 2 616 -70 1082 -521 1184 -1148 9 -59 10 -321 0 -385 -21
-138 -72 -295 -138 -428 -84 -167 -132 -220 -689 -779 -406 -408 -538 -546
-549 -575 -10 -27 -12 -54 -7 -88 8 -49 12 -54 284 -327 151 -153 290 -284
308 -293 38 -18 98 -19 137 -2 15 7 256 239 535 518 279 278 530 523 557 546
165 133 395 244 585 282 30 6 69 13 85 17 70 14 316 14 412 -1 664 -100 1138
-644 1148 -1315 4 -302 -89 -586 -273 -835 -25 -33 -971 -987 -2103 -2120
-1470 -1471 -2063 -2071 -2074 -2097 -18 -44 -18 -60 -4 -112 9 -31 62 -90
284 -313 171 -170 287 -279 309 -288 53 -22 108 -19 149 9 56 39 4114 4102
4190 4196 162 200 313 462 395 685 83 221 122 391 152 650 8 71 5 435 -4 490
-3 17 -10 62 -15 100 -51 339 -175 661 -370 955 -63 96 -216 283 -291 355 -40
39 -84 82 -99 96 -69 67 -275 218 -376 277 -22 12 -103 54 -180 92 -205 100
-414 169 -625 204 -180 30 -239 35 -416 36 -138 0 -142 1 -186 29 -66 42 -76
76 -82 301 -3 102 -8 205 -12 230 -16 125 -86 424 -113 485 -5 11 -19 47 -31
80 -129 367 -425 765 -765 1030 -317 247 -757 430 -1130 471 -27 3 -57 8 -65
11 -17 6 -415 15 -421 9z"/>
<path d="M11795 12515 c-27 -12 -1396 -1373 -1429 -1421 -22 -31 -29 -86 -17
-131 9 -33 56 -85 283 -311 150 -150 283 -279 295 -288 35 -24 113 -27 151 -6
48 25 1422 1400 1438 1439 18 42 18 92 0 134 -18 43 -550 574 -589 588 -37 14
-95 13 -132 -4z"/>
<path d="M17494 22199 c-5 -8 -3 -9 5 -5 8 5 12 3 10 -5 -3 -28 1 -38 21 -44
11 -4 18 -10 15 -15 -3 -5 -1 -11 5 -15 5 -3 11 2 11 12 1 10 2 25 3 33 1 18
-22 45 -31 36 -3 -3 -12 -1 -19 5 -8 7 -14 6 -20 -2z m51 -39 c-5 -8 -11 -8
-21 1 -12 10 -12 14 -2 20 16 10 33 -5 23 -21z"/>
<path d="M19479 22051 c11 -7 11 -9 0 -14 -10 -4 -10 -6 -1 -6 6 -1 12 -13 12
-27 0 -20 4 -25 16 -20 9 3 18 6 20 6 3 0 3 4 0 9 -4 5 4 7 16 4 13 -3 21 -3
18 0 -10 11 -81 57 -88 57 -4 0 -1 -4 7 -9z"/>
<path d="M18995 21190 c3 -5 11 -10 16 -10 6 0 7 5 4 10 -3 6 -11 10 -16 10
-6 0 -7 -4 -4 -10z"/>
<path d="M19953 20537 c-1 -11 -1 -18 0 -16 2 2 8 11 15 20 9 12 9 16 -1 16
-7 0 -14 -9 -14 -20z"/>
<path d="M19990 20536 c0 -2 7 -7 16 -10 8 -3 12 -2 9 4 -6 10 -25 14 -25 6z"/>
<path d="M19896 20511 c-3 -5 2 -15 12 -22 15 -12 16 -12 5 2 -7 9 -10 19 -6
22 3 4 4 7 0 7 -3 0 -8 -4 -11 -9z"/>
<path d="M19970 20506 c0 -2 8 -10 18 -17 15 -13 16 -12 3 4 -13 16 -21 21
-21 13z"/>
<path d="M19994 20456 c1 -8 5 -18 8 -22 4 -3 5 1 4 10 -1 8 -5 18 -8 22 -4 3
-5 -1 -4 -10z"/>
<path d="M19895 20449 c5 -7 52 -6 59 2 3 2 -10 5 -29 5 -18 0 -32 -3 -30 -7z"/>
<path d="M2447 8040 c-3 -12 0 -20 8 -20 8 0 11 8 8 20 -3 11 -7 20 -8 20 -1
0 -5 -9 -8 -20z"/>
<path d="M21697 6709 c7 -7 15 -10 18 -7 3 3 -2 9 -12 12 -14 6 -15 5 -6 -5z"/>
<path d="M21670 6690 c0 -5 5 -10 10 -10 6 0 10 5 10 10 0 6 -4 10 -10 10 -5
0 -10 -4 -10 -10z"/>
<path d="M21707 6679 c-9 -6 -15 -14 -12 -20 4 -5 -3 -9 -15 -9 -12 0 -19 4
-15 9 3 5 1 12 -4 15 -5 4 -8 -2 -7 -11 3 -18 47 -27 45 -10 0 5 8 15 18 23
21 16 16 18 -10 3z"/>
<path d="M21734 6668 c-4 -7 -4 -10 1 -6 4 4 14 0 21 -10 7 -9 14 -12 14 -6 0
6 -6 17 -14 23 -11 9 -16 9 -22 -1z"/>
<path d="M21816 6647 c4 -12 2 -17 -7 -15 -8 2 -14 -8 -15 -27 -2 -20 0 -25 5
-16 5 8 7 21 3 29 -3 10 -1 13 6 8 15 -9 26 14 13 27 -9 9 -11 8 -5 -6z"/>
<path d="M21633 6635 c0 -8 4 -15 9 -15 4 0 8 4 8 9 0 6 -4 12 -8 15 -5 3 -9
-1 -9 -9z"/>
<path d="M21715 6639 c-4 -6 -5 -12 -2 -15 2 -3 7 2 10 11 7 17 1 20 -8 4z"/>
<path d="M21737 6633 c-10 -10 -8 -33 3 -33 5 0 6 7 3 17 -5 12 -3 14 7 8 9
-5 11 -4 6 3 -8 14 -10 14 -19 5z"/>
<path d="M21836 6623 c-6 -14 -5 -15 5 -6 7 7 10 15 7 18 -3 3 -9 -2 -12 -12z"/>
<path d="M21665 6610 c3 -5 8 -10 11 -10 2 0 4 5 4 10 0 6 -5 10 -11 10 -5 0
-7 -4 -4 -10z"/>
<path d="M21691 6609 c-1 -21 25 -44 33 -30 4 5 2 12 -4 16 -5 3 -10 3 -11 -2
0 -4 -4 1 -9 12 -7 15 -9 16 -9 4z"/>
<path d="M21815 6589 c-4 -6 -5 -12 -2 -15 2 -3 7 2 10 11 7 17 1 20 -8 4z"/>
<path d="M21750 6580 c8 -5 20 -10 25 -10 6 0 3 5 -5 10 -8 5 -19 10 -25 10
-5 0 -3 -5 5 -10z"/>
<path d="M21775 6530 c3 -5 8 -10 11 -10 2 0 4 5 4 10 0 6 -5 10 -11 10 -5 0
-7 -4 -4 -10z"/>
<path d="M22035 6153 c34 -34 75 -83 70 -83 -3 0 0 -10 6 -22 l11 -21 18 23
c18 24 18 24 -33 63 -29 21 -61 43 -72 49 l-20 10 20 -19z"/>
<path d="M4003 5598 c-22 -11 -22 -12 -5 -42 9 -17 21 -34 25 -37 4 -3 9 -16
10 -27 1 -12 5 -22 9 -22 4 0 5 -6 2 -14 -7 -17 8 -27 24 -18 8 6 7 19 -4 52
-9 25 -16 62 -17 83 -1 39 -8 43 -44 25z"/>
<path d="M4146 5347 c2 -6 20 -23 40 -36 19 -13 45 -37 58 -52 l23 -28 12 25
c14 32 14 35 -4 28 -8 -4 -15 -1 -15 5 0 6 -3 10 -7 10 -5 -1 -11 0 -15 1 -13
4 -27 7 -39 9 -5 0 -7 6 -3 13 4 7 3 8 -4 4 -7 -4 -12 -3 -12 1 0 5 -9 14 -20
20 -15 10 -18 10 -14 0z"/>
<path d="M4471 4938 c-1 -9 6 -23 14 -31 8 -8 12 -17 9 -20 -7 -7 15 -49 35
-65 10 -8 10 -11 2 -6 -9 4 -12 3 -8 -3 4 -6 22 -13 41 -15 32 -4 34 -2 31 22
-6 42 -16 60 -36 60 -10 0 -19 5 -19 10 0 6 -6 10 -14 10 -8 0 -18 9 -21 20
-4 11 -10 18 -15 15 -5 -3 -11 1 -13 7 -4 8 -6 7 -6 -4z m83 -77 c-2 -3 -12 3
-22 13 -16 17 -16 18 5 5 12 -7 20 -15 17 -18z m-14 -11 c8 -5 11 -10 5 -10
-5 0 -17 5 -25 10 -8 5 -10 10 -5 10 6 0 17 -5 25 -10z m34 -28 c3 -5 -1 -9
-9 -9 -8 0 -15 4 -15 9 0 4 4 8 9 8 6 0 12 -4 15 -8z"/>
<path d="M20129 4388 c-20 -19 -69 -50 -69 -43 0 4 -7 0 -15 -9 -9 -8 -22 -13
-30 -10 -8 4 -15 2 -15 -3 0 -18 13 -22 34 -11 11 7 24 13 29 14 4 1 9 3 12 4
3 1 10 4 15 5 6 1 11 4 13 5 1 1 15 3 31 4 34 2 42 15 23 40 -11 16 -15 16
-28 4z"/>
<path d="M5573 3899 c-9 -9 -9 -17 -1 -33 6 -12 12 -23 12 -26 0 -3 23 -24 50
-47 38 -31 54 -39 64 -31 10 9 6 18 -20 42 -18 18 -36 30 -40 28 -5 -2 -8 2
-8 8 0 6 -5 16 -10 23 -6 7 -16 20 -23 30 -9 14 -15 15 -24 6z"/>
<path d="M6056 3694 c-4 -9 -4 -19 -1 -22 2 -3 7 3 11 12 4 9 4 19 1 22 -2 3
-7 -3 -11 -12z"/>
<path d="M12782 2177 c-18 -19 -22 -34 -21 -78 1 -30 4 -43 6 -31 3 13 17 48
33 78 29 57 21 72 -18 31z"/>
<path d="M10038 1942 c-5 -17 0 -21 36 -25 22 -3 50 -7 60 -9 10 -1 21 2 23 8
2 6 -2 11 -9 12 -38 2 -94 16 -99 24 -3 6 -9 1 -11 -10z"/>
<path d="M12773 1847 c1 -43 5 -56 15 -52 8 3 17 5 22 5 4 0 6 9 3 20 -3 11
-9 20 -14 20 -5 0 -9 8 -9 18 0 9 -5 24 -10 32 -6 10 -9 -3 -7 -43z"/>
<path d="M14278 900 c-32 -34 -23 -40 60 -40 48 1 54 2 37 12 -11 6 -22 14
-25 17 -3 3 -14 14 -25 23 -19 16 -21 15 -47 -12z"/>
<path d="M10824 889 c-3 -5 -8 -8 -12 -5 -4 2 -16 0 -27 -5 -14 -5 -4 -8 33
-8 37 -1 52 3 50 11 -5 14 -36 19 -44 7z"/>
<path d="M13766 847 c-3 -14 -9 -32 -12 -40 -4 -12 2 -15 31 -13 19 2 37 5 39
7 2 2 -8 19 -24 37 l-28 33 -6 -24z"/>
</g>
</svg>
